<svg width="257" height="377" viewBox="0 0 257 377" fill="none" xmlns="http://www.w3.org/2000/svg">
<path d="M128.131 38.8989C82.6039 38.8989 45.111 73.2024 39.9286 117.38C39.667 119.611 39.4707 121.857 39.3652 124.128C39.2701 126.175 40.9348 127.837 42.979 127.837H56.4717C58.516 127.837 60.1636 126.174 60.2942 124.129C60.4397 121.849 60.7081 119.603 61.0522 117.38C66.0899 84.7992 94.1697 59.8136 128.131 59.8136C165.654 59.8136 196.056 90.2776 196.056 127.837C196.056 165.397 165.654 195.828 128.131 195.828H26.2C23.293 195.828 21.5393 199.022 23.203 201.412C26.6919 206.423 30.5239 211.179 34.6772 215.628C35.366 216.366 36.3324 216.776 37.3404 216.776H128.131C177.2 216.776 216.984 176.954 216.983 127.837C216.983 78.7204 177.2 38.8989 128.131 38.8989Z" fill="url(#paint0_radial_1_9309)"/>
<path d="M128.131 0C88.3519 0 52.8046 18.1343 29.3188 46.6197C12.9494 66.4712 2.75538 91.5291 0.645412 117.185C0.639163 117.25 0.617294 117.313 0.612087 117.38C0.431251 119.62 0.266153 121.865 0.172305 124.128C0.0874129 126.175 1.74853 127.837 3.79277 127.837H17.2854C19.3297 127.837 20.9804 126.175 21.0544 124.128C21.1363 121.861 21.2909 119.616 21.5076 117.38C26.7693 63.0683 72.491 20.5894 128.131 20.5894C187.302 20.5894 235.275 68.6081 235.275 127.837C235.275 187.067 187.302 235.085 128.131 235.084H69.9217C66.2513 235.084 64.9515 239.658 68.1968 241.377C84.266 249.887 102.374 255.027 121.589 256H128.131C194.428 256 248.929 205.564 255.486 140.934C255.912 136.733 256.159 132.475 256.169 128.163C256.169 123.739 255.923 119.343 255.486 115.034C248.929 50.4039 194.428 0 128.131 0Z" fill="url(#paint1_radial_1_9309)"/>
<path d="M128.131 78.123C104.303 78.123 84.4452 94.9678 79.6356 117.38C79.1625 119.586 78.8078 121.835 78.6185 124.131C78.4502 126.173 80.1211 127.837 82.1653 127.837H95.6903C97.7346 127.837 99.3669 126.168 99.6418 124.138C99.9603 121.785 100.572 119.526 101.41 117.38C105.596 106.671 115.948 99.07 128.131 99.0711C144.006 99.0711 156.869 111.946 156.87 127.837C156.87 143.728 144.006 156.603 128.131 156.604H24.8585C24.0683 153.708 23.334 150.697 22.504 147.811C21.9211 145.785 20.104 144.385 18.2552 144.385H4.87797C3.05158 144.385 1.42135 146.516 1.77292 148.535C3.46549 157.568 5.4901 167.013 9.14075 175.484C9.71117 176.808 11.1074 177.519 12.417 177.519H128.131C155.551 177.519 177.764 155.285 177.764 127.837C177.764 100.39 155.551 78.123 128.131 78.123Z" fill="url(#paint2_radial_1_9309)"/>
<path d="M7.39882 310.133C14.8614 304.498 26.0301 305.125 33.9497 309.503C34.1373 309.606 34.2512 309.804 34.2512 310.017V317.808C34.2512 318.245 33.7931 318.534 33.3881 318.365C30.2146 317.034 26.658 316.369 22.7187 316.369C16.9847 316.369 14.118 317.76 14.118 320.542C14.118 324.139 19.8796 325.23 22.5229 325.905C27.5804 327.195 32.4714 329.036 35.4972 333.5C37.1429 335.926 37.9654 339.016 37.9654 342.769C37.9654 352.645 28.066 357.279 19.3466 357.279C13.7332 357.279 8.55741 355.977 3.81865 353.372C3.62976 353.268 3.5138 353.07 3.5138 352.855V343.688C3.5138 343.212 4.04926 342.926 4.45752 343.174C8.58338 345.686 12.9764 346.942 17.6365 346.942C21.1953 346.942 25.9438 346.749 25.9438 342.187C25.9438 338.47 20.2967 337.131 17.5139 336.339C12.7346 334.978 7.7531 333.54 4.56404 329.496C0.0787551 323.807 1.76361 314.388 7.39882 310.133Z" fill="#004BD0"/>
<path d="M186.305 356.503C185.974 356.503 185.705 356.236 185.705 355.907V311.746C185.705 311.517 185.837 311.307 186.047 311.212C186.824 310.859 187.834 310.45 189.077 309.988C195.606 307.557 203.079 306.318 210.019 306.142C210.354 306.133 210.628 306.402 210.628 306.734V315.878C210.628 316.204 210.364 316.47 210.036 316.476C205.469 316.571 201.511 317.077 198.159 317.994C197.902 318.065 197.727 318.298 197.727 318.563V355.907C197.727 356.236 197.458 356.503 197.127 356.503H186.305Z" fill="#004BD0"/>
<path d="M110.733 306.135C96.155 306.135 89.0357 319.802 89.0357 332.756C89.0357 346.704 96.9553 357.02 111.573 357.02C113.739 356.99 116.017 356.752 118.423 356.319C118.794 356.252 119.138 356.534 119.138 356.909C119.138 358.418 119.285 360.03 118.904 361.504C117.869 365.521 113.51 366.105 109.994 366.308C109.675 366.326 109.424 366.588 109.424 366.906V376.408C109.424 376.741 109.698 377.01 110.034 377C119.031 376.735 128.752 373.041 130.729 363.426C131.023 362.002 131.16 360.488 131.16 358.903V322.441C131.16 311.049 120.906 306.135 110.733 306.135ZM110.733 316.753C110.766 316.753 110.825 316.753 110.89 316.753C116.395 316.753 119.138 318.597 119.138 322.285V346.085C119.138 346.371 118.935 346.616 118.652 346.667C116.463 347.06 114.24 347.256 111.964 347.256C103.192 347.256 101.057 340.624 101.057 332.95C101.057 326.355 102.462 316.753 110.733 316.753Z" fill="#004BD0"/>
<path d="M51.2184 307.548C50.9599 307.617 50.7824 307.852 50.7824 308.118V316.596C50.7824 316.988 51.1568 317.274 51.5401 317.18C54.6275 316.426 58.0213 316.035 61.7675 316.035C68.572 316.035 72.1105 318.917 72.3667 324.701C72.3828 325.064 72.0572 325.344 71.6949 325.295C65.7751 324.493 59.4283 324.226 53.6559 325.993C47.0842 328.003 42.0841 333.326 42.0841 340.299C42.0841 352.201 52.8948 357.284 63.4876 357.284C73.7825 357.284 84.5008 352.17 84.5008 340.59V327.196C84.5008 320.37 82.6112 315.138 78.8325 311.531C71.8435 304.86 60.0151 305.172 51.2184 307.548ZM65.2859 332.34C67.1504 332.371 69.3809 332.549 71.9623 332.891C72.2588 332.931 72.4792 333.183 72.4792 333.48V339.232C72.4792 344.246 69.4825 346.744 63.4876 346.744C63.4551 346.744 63.4225 346.744 63.39 346.744C57.1024 346.744 53.9486 344.091 53.9486 338.785C53.9818 334.482 57.7605 332.34 65.2859 332.34Z" fill="#004BD0"/>
<path d="M145.572 307.547C145.313 307.617 145.136 307.852 145.136 308.118V316.596C145.136 316.988 145.511 317.274 145.894 317.18C148.983 316.426 152.394 316.035 156.141 316.035C162.945 316.035 166.466 318.917 166.721 324.701C166.737 325.064 166.411 325.344 166.049 325.295C160.134 324.493 153.797 324.228 148.029 325.993C141.391 328.024 136.437 333.247 136.437 340.299C136.437 352.187 147.267 357.284 157.841 357.284C168.155 357.284 178.855 352.184 178.855 340.59V327.196C178.855 320.37 176.965 315.138 173.186 311.531C166.198 304.861 154.368 305.168 145.572 307.547ZM159.659 332.34C161.524 332.371 163.737 332.549 166.316 332.891C166.613 332.931 166.833 333.183 166.833 333.48V339.232C166.833 344.246 163.836 346.744 157.841 346.744C157.809 346.744 157.776 346.744 157.744 346.744C151.456 346.744 148.322 344.091 148.322 338.785C148.355 334.482 152.134 332.34 159.659 332.34Z" fill="#004BD0"/>
<path d="M220.717 307.547C220.458 307.617 220.281 307.852 220.281 308.118V316.596C220.281 316.988 220.655 317.274 221.039 317.18C224.129 316.426 227.54 316.035 231.286 316.035C238.09 316.035 241.611 318.917 241.866 324.701C241.882 325.064 241.556 325.344 241.194 325.295C235.279 324.493 228.942 324.228 223.174 325.993C216.59 328.007 211.583 333.22 211.583 340.299C211.583 352.187 222.413 357.284 232.987 357.284C243.3 357.284 254 352.184 254 340.59V327.196C254 320.37 252.11 315.138 248.331 311.531C241.343 304.861 229.513 305.168 220.717 307.547ZM234.804 332.34C236.668 332.371 238.882 332.549 241.461 332.891C241.758 332.931 241.978 333.183 241.978 333.48V339.232C241.978 344.246 238.981 346.744 232.987 346.744C232.954 346.744 232.922 346.744 232.889 346.744C226.602 346.744 223.467 344.091 223.467 338.785C223.5 334.482 227.279 332.34 234.804 332.34Z" fill="#004BD0"/>
<defs>
<radialGradient id="paint0_radial_1_9309" cx="0" cy="0" r="1" gradientUnits="userSpaceOnUse" gradientTransform="translate(219.785 37.5) rotate(135.019) scale(256.071 262.404)">
<stop offset="0.0665658" stop-color="#FCE300"/>
<stop offset="0.290127" stop-color="#2FFF86"/>
<stop offset="0.640574" stop-color="#0096E1"/>
<stop offset="0.83191" stop-color="#0057F2"/>
<stop offset="1" stop-color="#004BD0"/>
</radialGradient>
<radialGradient id="paint1_radial_1_9309" cx="0" cy="0" r="1" gradientUnits="userSpaceOnUse" gradientTransform="translate(219.785 37.5) rotate(135.019) scale(256.071 262.404)">
<stop offset="0.0665658" stop-color="#FCE300"/>
<stop offset="0.290127" stop-color="#2FFF86"/>
<stop offset="0.640574" stop-color="#0096E1"/>
<stop offset="0.83191" stop-color="#0057F2"/>
<stop offset="1" stop-color="#004BD0"/>
</radialGradient>
<radialGradient id="paint2_radial_1_9309" cx="0" cy="0" r="1" gradientUnits="userSpaceOnUse" gradientTransform="translate(219.785 37.5) rotate(135.019) scale(256.071 262.404)">
<stop offset="0.0665658" stop-color="#FCE300"/>
<stop offset="0.290127" stop-color="#2FFF86"/>
<stop offset="0.640574" stop-color="#0096E1"/>
<stop offset="0.83191" stop-color="#0057F2"/>
<stop offset="1" stop-color="#004BD0"/>
</radialGradient>
</defs>
</svg>
